<svg xmlns="http://www.w3.org/2000/svg" version="1.1" xmlns:xlink="http://www.w3.org/1999/xlink" width="1500" height="1500" viewBox="0 0 1500 1500"><rect width="1500" height="1500" x="0" y="0" id="background" stroke="transparent" fill="#000000"></rect><svg xml:space="preserve" width="1000" height="1000" data-version="2" data-id="lg_jCMSqAfioNynoHAZaS" viewBox="0 0 571 196" x="250" y="250"><rect width="100%" height="100%" fill="transparent"></rect><rect width="255.167" height="20.34" x="-127.583" y="-10.17" fill="none" rx="0" ry="0" transform="translate(353.64 184.42)"></rect><path fill="#eeeeee" d="M227.84 188.13v1.44h6.36v-1.44zm0-11.16v1.44h6.36v-1.44zm0 5.04v1.44h6v-1.44zm.69-5.04H227v12.6h1.53zm7.56 0v1.44h6.26l-6.62 11.16h8.82v-1.44h-6.27l6.63-11.16zm16.48 8.79-1.22.82q.41.83 1.07 1.56t1.53 1.17 1.9.44q.76 0 1.45-.25t1.24-.72.86-1.13q.32-.67.32-1.5 0-.86-.31-1.48-.3-.62-.78-1.07-.48-.44-1.03-.72-.56-.29-1.07-.47-1.09-.38-1.73-.77-.64-.38-.91-.83-.27-.44-.27-.96 0-.61.47-1.11.46-.49 1.49-.49.74 0 1.25.29t.87.74.6.91l1.31-.75q-.3-.67-.84-1.27t-1.31-.99q-.76-.39-1.79-.39-1.06 0-1.89.42-.83.43-1.3 1.17-.46.73-.46 1.67 0 .86.33 1.46.33.59.85 1 .53.4 1.1.66.58.26 1.05.43.72.25 1.35.56.64.32 1.04.82.4.51.4 1.35 0 .87-.62 1.42-.61.56-1.62.56-.75 0-1.35-.32-.59-.33-1.07-.9-.47-.58-.91-1.33m10.76 3.81v-14.04h-1.44v14.04zm3.87-5.04v5.04h1.44v-5.22q0-1.08-.35-1.8t-.99-1.08-1.5-.36q-.87 0-1.53.45-.65.45-1.03 1.22-.38.76-.38 1.75h.47q0-.59.26-1.06t.74-.74 1.11-.27q.88 0 1.32.52.44.53.44 1.55m3.42.9q0 1.24.57 2.22.56.99 1.54 1.54.97.56 2.17.56 1.23 0 2.19-.56.96-.55 1.53-1.54.57-.98.57-2.22 0-1.26-.57-2.23t-1.53-1.53-2.19-.56q-1.2 0-2.17.56-.98.56-1.54 1.53-.57.97-.57 2.23m1.46 0q0-.86.37-1.54.37-.67 1-1.05.64-.38 1.45-.38t1.45.38 1.01 1.05q.37.68.37 1.54 0 .87-.37 1.53-.37.67-1.01 1.05-.64.39-1.45.39t-1.45-.39q-.63-.38-1-1.05-.37-.66-.37-1.53m9 8.1h1.44v-12.24h-1.44zm8.37-8.1q0-1.35-.56-2.31t-1.49-1.49q-.92-.52-2.06-.52-1.02 0-1.81.52-.78.53-1.22 1.49t-.44 2.31q0 1.33.44 2.31.44.97 1.22 1.49.79.52 1.81.52 1.14 0 2.06-.52.93-.52 1.49-1.49.56-.98.56-2.31m-1.46 0q0 .96-.39 1.62-.38.67-1.02 1.01t-1.42.34q-.63 0-1.24-.34t-1.01-1.01q-.39-.66-.39-1.62 0-.95.39-1.62.4-.66 1.01-1.01.61-.34 1.24-.34.78 0 1.42.34.64.35 1.02 1.01.39.67.39 1.62m3.34 8.1h1.44v-12.24h-1.44zm8.37-8.1q0-1.35-.56-2.31t-1.49-1.49q-.92-.52-2.06-.52-1.02 0-1.81.52-.78.53-1.22 1.49t-.44 2.31q0 1.33.44 2.31.44.97 1.22 1.49.79.52 1.81.52 1.14 0 2.06-.52.93-.52 1.49-1.49.56-.98.56-2.31m-1.46 0q0 .96-.39 1.62-.38.67-1.02 1.01t-1.42.34q-.63 0-1.24-.34t-1.01-1.01q-.39-.66-.39-1.62 0-.95.39-1.62.4-.66 1.01-1.01.61-.34 1.24-.34.78 0 1.42.34.64.35 1.02 1.01.39.67.39 1.62m3.44-7.55q0 .4.29.69.3.3.7.3.41 0 .7-.3.29-.29.29-.69 0-.41-.29-.7t-.7-.29q-.4 0-.7.29-.29.29-.29.7m1.71 3.42h-1.44v8.28h1.44zm8.29 3.23v5.04h1.44v-5.22q0-1.49-.77-2.37-.76-.87-2.08-.87-.81 0-1.43.36t-1.03 1.12v-1.3h-1.44v8.28h1.44v-5.04q0-.61.26-1.08t.74-.73q.47-.26 1.1-.26.87 0 1.32.52.45.53.45 1.55m5.04 5.58h-1.46q0 1.06.52 1.88t1.45 1.27 2.13.45q1.05 0 1.98-.48.94-.49 1.53-1.45.6-.97.6-2.39v-8.1h-1.44v8.1q0 1.05-.41 1.7-.4.66-1.01.97-.62.3-1.25.3-.81 0-1.4-.31-.59-.32-.92-.83-.32-.51-.32-1.11m-1.62-4.68q0 1.33.56 2.31.55.97 1.49 1.49t2.05.52q1.05 0 1.82-.52t1.21-1.49q.45-.98.45-2.31 0-1.35-.45-2.31-.44-.96-1.21-1.49-.77-.52-1.82-.52-1.11 0-2.05.52-.94.53-1.49 1.49-.56.96-.56 2.31m1.46 0q0-.95.38-1.62.39-.66 1.04-1.01.65-.34 1.4-.34.47 0 .94.2t.85.58q.39.37.62.92.24.55.24 1.27 0 .96-.4 1.62-.39.67-1.01 1.01-.61.34-1.24.34-.75 0-1.4-.34t-1.04-1.01q-.38-.66-.38-1.62m12.26 2.7-1.44-.54-1.58 4.66 1.04.38zm9.81-11.16h-1.53v12.6h1.53zm8.1 7.56v5.04h1.44v-5.22q0-1.49-.76-2.37-.77-.87-2.08-.87-.81 0-1.43.36t-1.04 1.12v-1.3h-1.44v8.28h1.44v-5.04q0-.61.26-1.08t.74-.73 1.11-.26q.86 0 1.31.52.45.53.45 1.55m4.48 2.5-1.13.71q.23.48.69.95t1.13.76q.66.3 1.49.3 1.28 0 2.06-.72.79-.72.79-1.8 0-.74-.36-1.2-.35-.47-.94-.81-.59-.33-1.31-.62-.44-.18-.83-.37-.4-.2-.65-.45-.25-.26-.25-.58 0-.41.32-.61.33-.2.78-.2.64 0 1.16.31.51.3.85.77l1.15-.74q-.25-.47-.7-.83t-1.03-.57q-.59-.22-1.25-.22-.67 0-1.29.24-.62.23-1.01.72-.39.48-.39 1.22 0 .72.37 1.2.37.47.92.77t1.09.51q.49.18.92.39t.71.5q.28.3.28.73 0 .49-.35.77t-.97.28q-.5 0-.92-.19-.43-.19-.75-.51-.32-.33-.58-.71m9.8-5.74h-4.14v1.35h4.14zm-1.35-2.88h-1.44v11.16h1.44zm3.43 8.61q0-.45.22-.78.22-.32.66-.5t1.14-.18q.76 0 1.42.19.67.19 1.3.62v-.85q-.13-.16-.49-.42t-.96-.47-1.5-.21q-1.53 0-2.39.73-.85.73-.85 1.94 0 .84.39 1.44.4.59 1.05.91.66.31 1.42.31.68 0 1.37-.25.7-.25 1.17-.77.48-.53.48-1.32l-.29-1.08q0 .65-.31 1.14-.32.5-.85.77t-1.19.27q-.53 0-.93-.17-.41-.17-.63-.51-.23-.35-.23-.81m-.91-4.88.7 1.06q.2-.14.54-.34t.83-.34q.5-.15 1.11-.15.38 0 .72.07.34.08.6.24.27.16.41.44t.14.71v5.74h1.44v-5.94q0-.81-.4-1.37-.41-.55-1.14-.85-.72-.3-1.7-.3-1.15 0-1.97.34-.82.35-1.28.69m14.24 2.39v5.04h1.44v-5.22q0-1.49-.76-2.37-.77-.87-2.08-.87-.81 0-1.43.36t-1.04 1.12v-1.3h-1.44v8.28h1.44v-5.04q0-.61.26-1.08.27-.47.74-.73.48-.26 1.11-.26.86 0 1.31.52.45.53.45 1.55m7.01-3.24h-4.14v1.35h4.14zm-1.35-2.88h-1.44v11.16h1.44zm8.75 7.35-1.22.82q.41.83 1.07 1.56t1.53 1.17 1.9.44q.75 0 1.45-.25.69-.25 1.24-.72t.86-1.13q.32-.67.32-1.5 0-.86-.31-1.48-.3-.62-.78-1.07-.48-.44-1.04-.72-.55-.29-1.06-.47-1.1-.38-1.74-.77-.63-.38-.9-.83-.27-.44-.27-.96 0-.61.46-1.11.47-.49 1.5-.49.74 0 1.25.29t.87.74.6.91l1.31-.75q-.31-.67-.85-1.27t-1.3-.99q-.77-.39-1.79-.39-1.06 0-1.89.42-.83.43-1.3 1.17-.47.73-.47 1.67 0 .86.34 1.46.33.59.85 1 .52.4 1.1.66t1.04.43q.72.25 1.36.56.64.32 1.04.82.39.51.39 1.35 0 .87-.61 1.42-.61.56-1.62.56-.75 0-1.35-.32-.59-.33-1.07-.9-.48-.58-.91-1.33m9.96 1.26q0-.45.21-.78.22-.32.66-.5t1.14-.18q.76 0 1.42.19.67.19 1.3.62v-.85q-.13-.16-.49-.42t-.96-.47-1.5-.21q-1.53 0-2.39.73-.85.73-.85 1.94 0 .84.39 1.44.4.59 1.06.91.65.31 1.41.31.68 0 1.38-.25.69-.25 1.17-.77.47-.53.47-1.32l-.28-1.08q0 .65-.32 1.14-.31.5-.85.77-.53.27-1.19.27-.52 0-.93-.17-.4-.17-.63-.51-.22-.35-.22-.81m-.92-4.88.7 1.06q.2-.14.54-.34t.84-.34q.49-.15 1.1-.15.38 0 .72.07.35.08.61.24t.4.44q.15.28.15.71v5.74h1.44v-5.94q0-.81-.41-1.37-.4-.55-1.13-.85t-1.7-.3q-1.16 0-1.98.34-.81.35-1.28.69m11.81-.85h-4.14v1.35h4.14zm-1.35-2.88h-1.44v11.16h1.44zm2.79-.53q0 .4.29.69.3.3.7.3.41 0 .7-.3.29-.29.29-.69 0-.41-.29-.7t-.7-.29q-.4 0-.7.29-.29.29-.29.7m1.71 3.42h-1.44v8.28h1.44zm3.31 5.73-1.14.71q.24.48.7.95t1.12.76q.67.3 1.5.3 1.27 0 2.06-.72.78-.72.78-1.8 0-.74-.35-1.2-.35-.47-.95-.81-.59-.33-1.31-.62-.43-.18-.83-.37-.39-.2-.65-.45-.25-.26-.25-.58 0-.41.33-.61.32-.2.77-.2.65 0 1.16.31.51.3.86.77l1.15-.74q-.25-.47-.7-.83t-1.04-.57q-.58-.22-1.25-.22t-1.29.24q-.62.23-1.01.72-.38.48-.38 1.22 0 .72.37 1.2.37.47.91.77.55.3 1.09.51.49.18.92.39t.71.5q.28.3.28.73 0 .49-.35.77t-.96.28q-.51 0-.93-.19t-.75-.51q-.32-.33-.57-.71m10.43-5.74h-4.14v1.35h4.14zm-.14-4.03.79-1.19q-.13-.18-.35-.34-.23-.16-.53-.27-.31-.11-.71-.11-.75 0-1.28.32-.53.31-.82.94t-.29 1.62v11.34h1.44v-11.16q0-.59.11-.95t.29-.52q.19-.15.46-.15.22 0 .46.08.25.08.43.39m2.42 9.76q0-.45.21-.78.22-.32.66-.5t1.14-.18q.76 0 1.42.19.67.19 1.3.62v-.85q-.13-.16-.49-.42t-.96-.47-1.5-.21q-1.53 0-2.39.73-.85.73-.85 1.94 0 .84.39 1.44.4.59 1.06.91.65.31 1.41.31.68 0 1.38-.25.69-.25 1.17-.77.47-.53.47-1.32l-.28-1.08q0 .65-.32 1.14-.31.5-.85.77-.53.27-1.19.27-.52 0-.93-.17-.4-.17-.63-.51-.22-.35-.22-.81m-.92-4.88.7 1.06q.2-.14.54-.34t.84-.34q.49-.15 1.1-.15.38 0 .72.07.35.08.61.24t.4.44q.15.28.15.71v5.74h1.44v-5.94q0-.81-.41-1.37-.4-.55-1.13-.85t-1.7-.3q-1.16 0-1.98.34-.81.35-1.28.69m9.57 3.29q0-.86.37-1.54.37-.67 1.01-1.05t1.45-.38q.67 0 1.25.21.59.21 1.02.55t.61.75v-1.8q-.43-.5-1.23-.78t-1.65-.28q-1.21 0-2.18.56t-1.54 1.53q-.56.97-.56 2.23 0 1.24.56 2.22.57.99 1.54 1.54.97.56 2.18.56.85 0 1.65-.28t1.23-.78v-1.8q-.18.4-.61.75t-1.02.55q-.58.21-1.25.21-.81 0-1.45-.39-.64-.38-1.01-1.05-.37-.66-.37-1.53m10.84-4.14h-4.14v1.35h4.14zm-1.35-2.88h-1.44v11.16h1.44zm2.79-.53q0 .4.3.69.29.3.69.3.41 0 .7-.3.29-.29.29-.69 0-.41-.29-.7t-.7-.29q-.4 0-.69.29-.3.29-.3.7m1.71 3.42h-1.44v8.28h1.44zm2.25 4.13q0 1.24.57 2.22.56.99 1.54 1.54.97.56 2.17.56 1.23 0 2.19-.56.96-.55 1.53-1.54.57-.98.57-2.22 0-1.26-.57-2.23t-1.53-1.53-2.19-.56q-1.2 0-2.17.56-.98.56-1.54 1.53-.57.97-.57 2.23m1.46 0q0-.86.37-1.54.37-.67 1-1.05.64-.38 1.45-.38t1.45.38 1.01 1.05q.37.68.37 1.54 0 .87-.37 1.53-.37.67-1.01 1.05-.64.39-1.45.39t-1.45-.39q-.63-.38-1-1.05-.37-.66-.37-1.53m14.41-.9v5.04h1.44v-5.22q0-1.49-.77-2.37-.76-.87-2.08-.87-.81 0-1.43.36t-1.03 1.12v-1.3h-1.44v8.28h1.44v-5.04q0-.61.26-1.08t.74-.73q.47-.26 1.1-.26.87 0 1.32.52.45.53.45 1.55"></path><path fill="#2e2e2e" d="M352.8 1.9c24.091 0 45.411 18.121 56.444 33.685l76.006 111.983H316.023l-85.654-.053c-19.454 0-35.764-13.858-39.655-32.193h-21.32c-19.508 0-35.817-13.858-39.708-32.194h-19.721c-19.508 0-35.871-13.858-39.709-32.193H46.165c-22.386 0-40.615-18.228-40.615-40.614V1.953zM46.11 34.091h165.443v16.79H87.74a23.985 23.985 0 0 0 22.172 15.404h131.811v16.79h-94.554a23.985 23.985 0 0 0 22.226 15.403H277.86v16.79h-69.663a23.985 23.985 0 0 0 22.226 15.403l85.6.053h137.513L395.44 45.18c-6.929-9.86-23.718-26.49-42.64-26.49H23.886a23.985 23.985 0 0 0 22.226 15.403" opacity=".32"></path><rect width="340.227" height="162.155" x="-170.113" y="-81.077" fill="none" rx="0" ry="0" transform="translate(395.89 83.74)"></rect><path fill="#727272" d="M260.7 74.24h-29.11V13.97h26.4v8.04h-17.3v16.65h13.94v8.2h-13.94v19.27h20.01zm46.91 0h-43.38l30.18-52.39h-26.32v-7.88h40.75l-29.76 52.24h28.53zm-62.08 70.32q-3.45 0-6.81-.86t-5.98-2.13q-2.63-1.28-3.94-2.59l4.35-7.79q.9.74 2.82 1.93 1.93 1.19 4.47 2.09 2.55.9 5.09.9 4.18 0 7.01-1.97 2.83-1.96 2.83-5.74 0-3.11-1.64-5.16t-4.31-3.61q-2.66-1.56-5.74-2.99-3.07-1.44-5.86-3.24-3.2-2.13-5.58-5.66-2.37-3.53-2.37-9.1 0-5.5 2.5-9.02 2.5-3.53 6.64-5.29t9.06-1.76q3.94 0 6.72.82 2.79.82 4.68 1.96 1.88 1.15 2.95 2.05l-4.35 7.47q-1.39-1.48-4.18-2.75t-6.23-1.27q-4.02 0-6.4 1.84-2.37 1.85-2.37 5.46 0 3.19 2.13 5.45 2.13 2.25 5.45 4.1 3.32 1.84 6.85 3.73 3.52 1.89 6.23 4.43 2.21 1.97 3.77 4.92t1.56 6.64q0 5.58-2.58 9.43-2.59 3.85-6.93 5.78-4.35 1.93-9.84 1.93m38.29-.81h-9.18V83.48h9.18v24.6h21.24v-24.6h9.18v60.27h-9.18v-27.96h-21.24zm70.85.82q-6.15 0-11.6-2.13-5.46-2.14-9.64-6.19-4.18-4.06-6.6-9.8t-2.42-12.96q0-7.3 2.42-13.04t6.64-9.76q4.23-4.01 9.68-6.1 5.45-2.1 11.52-2.1t11.52 2.1q5.45 2.09 9.68 6.1 4.22 4.02 6.64 9.76t2.42 13.04q0 7.22-2.42 12.96t-6.6 9.8q-4.18 4.05-9.64 6.19-5.45 2.13-11.6 2.13m0-8.28q5.58 0 10.25-2.63 4.67-2.62 7.46-7.66 2.79-5.05 2.79-12.43 0-7.46-2.79-12.5-2.79-5.05-7.42-7.63t-10.29-2.58-10.29 2.58-7.42 7.63q-2.79 5.04-2.79 12.5 0 7.38 2.87 12.43 2.87 5.04 7.54 7.66 4.68 2.63 10.09 2.63m49.77 7.46h-9.26V83.48h13.28q7.87 0 12.63 2.29 4.76 2.3 6.89 6.36t2.13 9.31q0 9.59-5.58 14.8-5.57 5.2-16.89 5.2h-3.2zm0-52.24v21.82h3.45q5.41 0 8.2-1.73 2.79-1.72 3.77-4.26t.98-4.92q0-2.87-1.06-5.33-1.07-2.46-3.69-4.02-2.63-1.56-7.38-1.56zm43.47 52.24h-9.26V83.48h13.28q7.87 0 12.63 2.29 4.76 2.3 6.89 6.36t2.13 9.31q0 9.59-5.58 14.8-5.57 5.2-16.89 5.2h-3.2zm0-52.24v21.82h3.45q5.41 0 8.2-1.73 2.79-1.72 3.77-4.26t.98-4.92q0-2.87-1.06-5.33-1.07-2.46-3.69-4.02-2.63-1.56-7.38-1.56zm63.23 52.24h-29.11V83.48h26.4v8.03h-17.3v16.65h13.94v8.2h-13.94v19.27h20.01zm18.2 0h-8.94V83.48h13.7q4.59 0 8.89.9 4.31.9 7.67 3.03 3.36 2.14 5.33 5.66 1.97 3.53 1.97 8.69 0 5.99-2.79 10.42t-8.45 6.8l14.35 24.77H550.5l-12.14-22.8q-1.39.08-3.4.13-2.01.04-3.32.04h-2.3zm0-52.65v22.55h5.82q4.51 0 7.26-1.14 2.75-1.15 4.22-2.91 1.48-1.77 2.01-3.86t.53-3.89q0-4.02-1.84-6.36-1.85-2.34-5.09-3.36-3.23-1.03-7.42-1.03z" paint-order="stroke"></path></svg></svg>